#N canvas 953 0 958 464 12;
#X obj 38 271 outlet~;
#X obj 18 40 inlet~;
#X obj 44 -48 ctlin, f 10;
#X obj 44 -14 pack f f f;
#X obj 44 10 route \$1;
#X obj 44 65 route 23;
#X obj 44 98 moses 64;
#X obj 44 129 * 2;
#X obj 97 129 expr ($f1 - 64) * 2;
#X obj 19 213 lop~;
#X obj 44 183 mtof;
#X msg 66 155 127;
#X obj 72 213 hip~;
#X obj 97 183 mtof;
#X msg 113 155 0;
#X obj 37 243 +~;
#X connect 1 0 9 0;
#X connect 1 0 12 0;
#X connect 2 0 3 2;
#X connect 2 1 3 1;
#X connect 2 2 3 0;
#X connect 3 0 4 0;
#X connect 4 0 5 0;
#X connect 5 0 6 0;
#X connect 6 0 7 0;
#X connect 6 0 14 0;
#X connect 6 1 8 0;
#X connect 6 1 11 0;
#X connect 7 0 10 0;
#X connect 8 0 13 0;
#X connect 9 0 15 0;
#X connect 10 0 9 1;
#X connect 11 0 10 0;
#X connect 12 0 15 1;
#X connect 13 0 12 1;
#X connect 14 0 13 0;
#X connect 15 0 0 0;
