#N canvas 953 0 958 980 12;
#X declare -path zexy -lib zexy;
#X obj 22 -65 inlet;
#X obj 22 -17 date, f 8;
#X obj 64 300 time;
#X obj 22 165 makefilename;
#X msg 54 137 set \$1;
#X msg 55 235 set \$1;
#X obj 22 261 makefilename;
#X obj 22 91 t b s;
#X obj 22 189 t b s;
#X msg 96 444 set \$1;
#X obj 64 475 makefilename;
#X obj 64 396 t b s;
#X msg 96 547 set \$1;
#X obj 64 576 makefilename;
#X obj 64 499 t b s;
#X obj 22 738 print -n;
#X obj 22 -41 t b b f, f 13;
#X obj 22 684 pack s s s f, f 13;
#X msg 22 710 \$1 \$2 \$3 \$4;
#X obj 80 637 symbol \$1;
#X msg 80 661 symbol [\$1];
#X obj 22 19 _pad;
#X obj 61 41 _pad;
#X obj 75 19 _pad;
#X obj 64 324 _pad;
#X obj 103 348 _pad;
#X obj 124 325 _pad;
#X obj 51 612 t s b;
#X obj 22 115 symbol;
#X obj 22 67 makefilename %s-%%s-%%%%s;
#X obj 22 213 symbol, f 8;
#X obj 64 421 symbol;
#X obj 64 523 symbol, f 9;
#X obj 64 372 makefilename %s-%%s-%%%%s:;
#X obj 73 -65 declare -path zexy -lib zexy;
#X connect 0 0 16 0;
#X connect 1 0 21 0;
#X connect 1 1 22 0;
#X connect 1 2 23 0;
#X connect 2 0 24 0;
#X connect 2 1 25 0;
#X connect 2 2 26 0;
#X connect 3 0 8 0;
#X connect 4 0 3 0;
#X connect 5 0 6 0;
#X connect 6 0 17 0;
#X connect 7 0 28 0;
#X connect 7 1 4 0;
#X connect 8 0 30 0;
#X connect 8 1 5 0;
#X connect 9 0 10 0;
#X connect 10 0 14 0;
#X connect 11 0 31 0;
#X connect 11 1 9 0;
#X connect 12 0 13 0;
#X connect 13 0 27 0;
#X connect 14 0 32 0;
#X connect 14 1 12 0;
#X connect 16 0 1 0;
#X connect 16 1 2 0;
#X connect 16 2 17 3;
#X connect 17 0 18 0;
#X connect 18 0 15 0;
#X connect 19 0 20 0;
#X connect 20 0 17 2;
#X connect 21 0 29 0;
#X connect 22 0 28 1;
#X connect 23 0 30 1;
#X connect 24 0 33 0;
#X connect 25 0 31 1;
#X connect 26 0 32 1;
#X connect 27 0 17 1;
#X connect 27 1 19 0;
#X connect 28 0 3 0;
#X connect 29 0 7 0;
#X connect 30 0 6 0;
#X connect 31 0 10 0;
#X connect 32 0 13 0;
#X connect 33 0 11 0;
