#N canvas 121 81 450 300 12;
#X obj 22 1 inlet;
#X obj 22 62 t b f;
#X obj 22 96 until;
#X obj 64 96 sel 7;
#X obj 22 122 counter 1 7;
#X obj 22 204 outlet;
#X obj 122 204 outlet;
#X obj 71 204 outlet;
#X text 115 228 channel;
#X obj 75 1 inlet;
#X obj 22 147 t b b f, f 10;
#X obj 71 179 f;
#X obj 22 179 f \$1;
#X obj 22 32 spigot 1;
#X text 17 227 note/cc;
#X text 74 227 value;
#X connect 0 0 13 0;
#X connect 1 0 2 0;
#X connect 1 1 11 1;
#X connect 2 0 4 0;
#X connect 3 0 2 1;
#X connect 4 0 3 0;
#X connect 4 0 10 0;
#X connect 9 0 13 1;
#X connect 10 0 12 0;
#X connect 10 1 11 0;
#X connect 10 2 6 0;
#X connect 11 0 7 0;
#X connect 12 0 5 0;
#X connect 13 0 1 0;
