#N canvas 121 81 450 300 12;
#X obj 22 1 inlet;
#X obj 22 32 t b f;
#X obj 22 66 until;
#X obj 64 66 sel 7;
#X obj 22 92 counter 1 7;
#X obj 22 174 outlet;
#X obj 122 174 outlet;
#X obj 71 174 outlet;
#X text 115 198 channel;
#X obj 22 117 t b b f, f 10;
#X obj 71 149 f;
#X obj 22 149 f \$1;
#X text 74 197 value;
#X text 27 197 note;
#X connect 0 0 1 0;
#X connect 1 0 2 0;
#X connect 1 1 10 1;
#X connect 2 0 4 0;
#X connect 3 0 2 1;
#X connect 4 0 3 0;
#X connect 4 0 9 0;
#X connect 9 0 11 0;
#X connect 9 1 10 0;
#X connect 9 2 6 0;
#X connect 10 0 7 0;
#X connect 11 0 5 0;
