#N canvas 634 96 450 300 12;
#X obj 22 29 inlet;
#X obj 22 67 t b f;
#X obj 22 116 until;
#X obj 75 225 outlet;
#X obj 22 225 outlet;
#X obj 64 116 sel 8;
#X obj 22 142 counter 1 8;
#X obj 22 91 delay 150;
#X obj 22 170 t b f, f 8;
#X obj 22 198 float;
#X connect 0 0 1 0;
#X connect 1 0 7 0;
#X connect 1 1 9 1;
#X connect 2 0 6 0;
#X connect 5 0 2 1;
#X connect 6 0 5 0;
#X connect 6 0 8 0;
#X connect 7 0 2 0;
#X connect 8 0 9 0;
#X connect 8 1 3 0;
#X connect 9 0 4 0;
