#N canvas 0 50 450 300 12;
#X obj 37 37 inlet;
#X obj 37 85 makefilename 0%d;
#X obj 37 169 outlet;
#X obj 37 61 moses 10;
#X obj 90 109 _int2sym;
#X connect 0 0 3 0;
#X connect 1 0 2 0;
#X connect 3 0 1 0;
#X connect 3 1 4 0;
#X connect 4 0 2 0;
