#N canvas 953 516 958 464 12;
#X obj 13 -158 inlet~;
#X obj 13 29 outlet~;
#X obj 80 29 outlet~;
#X obj 31 -100 >= 84;
#X obj 105 -100 <= 42;
#X obj 105 -67 == 0;
#X obj 66 -67 == 0;
#X obj 66 -37 &&, f 6;
#X obj 75 -128 t f f;
#X obj 75 -158 inlet;
#X obj 13 -7 *~;
#X obj 48 -7 *~;
#X obj 80 -7 *~;
#X connect 0 0 10 0;
#X connect 0 0 11 0;
#X connect 0 0 12 0;
#X connect 3 0 6 0;
#X connect 3 0 10 1;
#X connect 4 0 5 0;
#X connect 4 0 12 1;
#X connect 5 0 7 1;
#X connect 6 0 7 0;
#X connect 7 0 11 1;
#X connect 8 0 3 0;
#X connect 8 0 4 0;
#X connect 9 0 8 0;
#X connect 10 0 1 0;
#X connect 11 0 2 0;
#X connect 11 0 1 0;
#X connect 12 0 2 0;
