#N canvas 919 238 450 300 12;
#X declare -path zexy -lib zexy;
#X obj 13 13 inlet~;
#X obj 14 162 outlet~;
#X obj 85 162 outlet~;
#X obj 13 84 demux~ 1 2, f 11;
#X obj 12 -16 declare -path zexy -lib zexy;
#X obj 31 51 == 0;
#X obj 104 52 == 1;
#X obj 70 13 inlet;
#X obj 13 121 *~;
#X obj 86 120 *~;
#X connect 0 0 3 0;
#X connect 3 0 8 0;
#X connect 3 1 9 0;
#X connect 5 0 8 1;
#X connect 6 0 9 1;
#X connect 7 0 5 0;
#X connect 7 0 6 0;
#X connect 8 0 1 0;
#X connect 9 0 2 0;
