#N canvas 953 1 958 464 12;
#X obj 32 197 outlet~;
#X obj 32 163 +~;
#X floatatom 52 92 5 0 0 0 - - -;
#X obj 52 61 / 127;
#X obj 13 6 inlet~;
#X obj 66 6 inlet~;
#X obj 52 31 inlet;
#X obj 105 110 expr 1 - $f1;
#X obj 13 135 *~ 0.5;
#X obj 66 135 *~ 0.5;
#X connect 1 0 0 0;
#X connect 2 0 7 0;
#X connect 2 0 8 1;
#X connect 3 0 2 0;
#X connect 4 0 8 0;
#X connect 5 0 9 0;
#X connect 6 0 3 0;
#X connect 7 0 9 1;
#X connect 8 0 1 0;
#X connect 9 0 1 1;
