#N canvas -7 516 958 464 12;
#N canvas 830 523 958 464 mixer 0;
#X obj 77 -376 inlet~;
#X obj 174 -376 inlet~;
#X obj 245 -376 inlet~;
#X obj 315 -376 inlet~;
#X obj 379 -376 inlet~;
#X obj 450 -376 inlet~;
#X obj 518 -376 inlet~;
#X obj 101 -319 / 127;
#X obj 200 -319 / 127;
#X obj 543 -319 / 127;
#X obj 270 -319 / 127;
#X obj 339 -319 / 127;
#X obj 405 -319 / 127;
#X obj 476 -319 / 127;
#X obj 39 -221 dac~ 1 2 3 4 5 6 7 8, f 69;
#X floatatom 101 -291 5 0 0 0 - - -;
#X floatatom 200 -291 5 0 0 0 - - -;
#X floatatom 270 -291 5 0 0 0 - - -;
#X floatatom 339 -291 5 0 0 0 - - -;
#X floatatom 543 -291 5 0 0 0 - - -;
#X floatatom 476 -291 5 0 0 0 - - -;
#X floatatom 405 -291 5 0 0 0 - - -;
#X obj 101 -349 r bs-7;
#X obj 200 -350 r bs-1;
#X obj 270 -350 r bs-2;
#X obj 339 -350 r bs-3;
#X obj 405 -350 r bs-4;
#X obj 476 -350 r bs-5;
#X obj 543 -350 r bs-6;
#X obj 76 -263 *~ 1;
#X obj 175 -263 *~ 1;
#X obj 245 -263 *~ 1;
#X obj 314 -263 *~ 1;
#X obj 380 -263 *~ 1;
#X obj 451 -263 *~ 1;
#X obj 518 -263 *~ 1;
#X connect 0 0 29 0;
#X connect 1 0 30 0;
#X connect 2 0 31 0;
#X connect 3 0 32 0;
#X connect 4 0 33 0;
#X connect 5 0 34 0;
#X connect 6 0 35 0;
#X connect 7 0 15 0;
#X connect 8 0 16 0;
#X connect 9 0 19 0;
#X connect 10 0 17 0;
#X connect 11 0 18 0;
#X connect 12 0 21 0;
#X connect 13 0 20 0;
#X connect 15 0 29 1;
#X connect 16 0 30 1;
#X connect 17 0 31 1;
#X connect 18 0 32 1;
#X connect 19 0 35 1;
#X connect 20 0 34 1;
#X connect 21 0 33 1;
#X connect 22 0 7 0;
#X connect 23 0 8 0;
#X connect 24 0 10 0;
#X connect 25 0 11 0;
#X connect 26 0 12 0;
#X connect 27 0 13 0;
#X connect 28 0 9 0;
#X connect 29 0 14 0;
#X connect 29 0 14 1;
#X connect 30 0 14 2;
#X connect 31 0 14 3;
#X connect 32 0 14 4;
#X connect 33 0 14 5;
#X connect 34 0 14 6;
#X connect 35 0 14 7;
#X restore 210 66 pd mixer;
#X f 20;
#N canvas -7 0 958 687 apc40 0;
#X obj 17 449 vsl 28 128 0 127 0 0 empty bs-1 1 12 -9 0 10 -262144
-1 -1 12700 1;
#X obj 47 449 vsl 28 128 0 127 0 0 empty bs-2 2 12 -9 0 10 -262144
-1 -1 12700 1;
#X obj 77 449 vsl 28 128 0 127 0 0 empty bs-3 3 12 -9 0 10 -262144
-1 -1 12700 1;
#X obj 107 449 vsl 28 128 0 127 0 0 empty bs-4 4 12 -9 0 10 -262144
-1 -1 12700 1;
#X obj 137 449 vsl 28 128 0 127 0 0 empty bs-5 5 12 -9 0 10 -262144
-1 -1 12700 1;
#X obj 167 449 vsl 28 128 0 127 0 0 empty bs-6 6 12 -9 0 10 -262144
-1 -1 12700 1;
#X obj 197 449 vsl 28 128 0 127 0 0 empty bs-7 7 12 -9 0 10 -262144
-1 -1 12700 1;
#X obj 227 449 vsl 28 128 0 127 0 0 empty bs-8 8 12 -9 0 10 -262144
-1 -1 12700 1;
#X obj 257 449 vsl 28 128 0 127 0 0 empty bs-9 Master -2 -9 0 10 -262144
-1 -1 12700 1;
#X obj 341 592 hsl 128 25 0 127 0 0 empty bs-10 empty -2 -8 0 10 -262144
-1 -1 6400 1;
#X floatatom 17 593 4 0 0 0 - - -;
#X floatatom 47 593 4 0 0 0 - - -;
#X floatatom 77 593 4 0 0 0 - - -;
#X floatatom 107 593 4 0 0 0 - - -;
#X floatatom 137 593 4 0 0 0 - - -;
#X floatatom 167 593 4 0 0 0 - - -;
#X floatatom 197 593 4 0 0 0 - - -;
#X floatatom 227 593 4 0 0 0 - - -;
#X floatatom 257 593 4 0 0 0 - - -;
#X floatatom 338 627 4 0 0 0 - - -;
#X obj 25 403 tgl 15 0 empty r-1 empty 17 7 0 10 -228856 -258113 -258113
1 1;
#X obj 54 403 tgl 15 0 empty r-2 empty 17 7 0 10 -228856 -258113 -258113
1 1;
#X obj 84 403 tgl 15 0 empty r-3 empty 17 7 0 10 -228856 -258113 -258113
1 1;
#X obj 114 403 tgl 15 0 empty r-4 empty 17 7 0 10 -228856 -258113 -258113
1 1;
#X obj 144 403 tgl 15 0 empty r-5 empty 17 7 0 10 -228856 -258113 -258113
1 1;
#X obj 174 403 tgl 15 0 empty r-6 empty 17 7 0 10 -228856 -258113 -258113
1 1;
#X obj 204 403 tgl 15 0 empty r-7 empty 17 7 0 10 -228856 -258113 -258113
1 1;
#X obj 234 403 tgl 15 0 empty r-8 empty 17 7 0 10 -228856 -258113 -258113
127 1;
#X obj 25 378 tgl 15 0 empty b-1 empty 17 7 0 10 -228856 -4160 -4160
1 1;
#X obj 25 353 tgl 15 0 empty g-1 empty 17 7 0 10 -128992 -4034 -4034
1 1;
#X obj 54 353 tgl 15 0 empty g-2 empty 17 7 0 10 -128992 -4034 -4034
1 1;
#X obj 84 353 tgl 15 0 empty g-3 empty 17 7 0 10 -128992 -4034 -4034
0 1;
#X obj 114 353 tgl 15 0 empty g-4 empty 17 7 0 10 -128992 -4034 -4034
0 1;
#X obj 144 353 tgl 15 0 empty g-5 empty 17 7 0 10 -128992 -4034 -4034
0 1;
#X obj 174 353 tgl 15 0 empty g-6 empty 17 7 0 10 -128992 -4034 -4034
0 1;
#X obj 204 353 tgl 15 0 empty g-7 empty 17 7 0 10 -128992 -4034 -4034
0 1;
#X obj 234 353 tgl 15 0 empty g-8 empty 17 7 0 10 -128992 -4034 -4034
0 1;
#X obj 54 378 tgl 15 0 empty b-2 empty 17 7 0 10 -228856 -4160 -4160
1 1;
#X obj 84 378 tgl 15 0 empty b-3 empty 17 7 0 10 -228856 -4160 -4160
1 1;
#X obj 114 378 tgl 15 0 empty b-4 empty 17 7 0 10 -228856 -4160 -4160
1 1;
#X obj 144 378 tgl 15 0 empty b-5 empty 17 7 0 10 -228856 -4160 -4160
1 1;
#X obj 174 378 tgl 15 0 empty b-6 empty 17 7 0 10 -228856 -4160 -4160
1 1;
#X obj 204 378 tgl 15 0 empty b-7 empty 17 7 0 10 -228856 -4160 -4160
1 1;
#X obj 234 378 tgl 15 0 empty b-8 empty 17 7 0 10 -228856 -4160 -4160
127 1;
#X obj 18 301 hradio 30 1 0 9 empty track Track_Selection 0 -8 0 10
-262144 -4034 -1 8;
#N canvas -7 516 1918 464 left-buttons 0;
#X obj 19 10 notein;
#X floatatom 19 47 4 0 0 0 - - -;
#X floatatom 100 47 4 0 0 0 - - -;
#X floatatom 59 47 4 0 0 0 - - -;
#X obj 19 94 pack f f f, f 12;
#X obj 19 320 route 1 2 3 4 5 6 7 8;
#X obj 19 347 _sender r 1;
#X obj 30 71 bng 15 250 50 0 empty empty empty 17 7 0 10 -262144 -1
-1;
#X obj 99 347 route 1 2 3 4 5 6 7 8;
#X obj 179 374 route 1 2 3 4 5 6 7 8;
#X obj 319 374 route 1 2 3 4 5 6 7 8;
#X obj 319 296 unpack f f;
#X obj 319 323 stripnote;
#X floatatom 319 350 5 0 0 0 - - -;
#X obj 319 401 send gb-1;
#X obj 319 429 send gb-2;
#X obj 319 455 send gb-3;
#X obj 319 482 send gb-4;
#X obj 319 509 send gb-5;
#X obj 319 536 send gb-6;
#X obj 319 563 send gb-7;
#X obj 319 590 send gb-8;
#X obj 459 374 route 1 2 3 4 5 6 7 8;
#X obj 459 296 unpack f f;
#X obj 459 323 stripnote;
#X floatatom 459 350 5 0 0 0 - - -;
#X obj 599 374 route 1 2 3 4 5 6 7 8;
#X obj 599 296 unpack f f;
#X obj 599 323 stripnote;
#X floatatom 599 350 5 0 0 0 - - -;
#X obj 739 374 route 1 2 3 4 5 6 7 8;
#X obj 739 296 unpack f f;
#X obj 739 323 stripnote;
#X floatatom 739 350 5 0 0 0 - - -;
#X obj 879 374 route 1 2 3 4 5 6 7 8;
#X obj 879 296 unpack f f;
#X obj 879 323 stripnote;
#X floatatom 879 350 5 0 0 0 - - -;
#X obj 1019 374 route 1 2 3 4 5 6 7 8;
#X obj 1019 296 unpack f f;
#X obj 1019 323 stripnote;
#X floatatom 1019 350 5 0 0 0 - - -;
#X obj 1019 401 send 57-1;
#X obj 1019 429 send 57-2;
#X obj 1019 455 send 57-3;
#X obj 1019 482 send 57-4;
#X obj 1019 509 send 57-5;
#X obj 1019 536 send 57-6;
#X obj 1019 563 send 57-7;
#X obj 1019 590 send 57-8;
#X obj 879 401 send 56-1;
#X obj 879 429 send 56-2;
#X obj 879 455 send 56-3;
#X obj 879 482 send 56-4;
#X obj 879 509 send 56-5;
#X obj 879 536 send 56-6;
#X obj 879 563 send 56-7;
#X obj 879 590 send 56-8;
#X obj 739 401 send 55-1;
#X obj 739 429 send 55-2;
#X obj 739 455 send 55-3;
#X obj 739 482 send 55-4;
#X obj 739 509 send 55-5;
#X obj 739 536 send 55-6;
#X obj 739 563 send 55-7;
#X obj 739 590 send 55-8;
#X obj 599 401 send 54-1;
#X obj 599 429 send 54-2;
#X obj 599 455 send 54-3;
#X obj 599 482 send 54-4;
#X obj 599 509 send 54-5;
#X obj 599 536 send 54-6;
#X obj 599 563 send 54-7;
#X obj 599 590 send 54-8;
#X obj 459 401 send 53-1;
#X obj 459 429 send 53-2;
#X obj 459 455 send 53-3;
#X obj 459 482 send 53-4;
#X obj 459 509 send 53-5;
#X obj 459 536 send 53-6;
#X obj 459 563 send 53-7;
#X obj 459 590 send 53-8;
#X obj 19 153 route 48 49 50 52 53 54 55 56 57 81 82 83 84 85 86;
#X obj 317 31 unpack f f;
#X obj 317 58 stripnote;
#X floatatom 317 85 5 0 0 0 - - -;
#X obj 317 109 s b81;
#X obj 387 31 unpack f f;
#X obj 387 58 stripnote;
#X floatatom 387 85 5 0 0 0 - - -;
#X obj 457 31 unpack f f;
#X obj 457 58 stripnote;
#X floatatom 457 85 5 0 0 0 - - -;
#X obj 527 31 unpack f f;
#X obj 527 58 stripnote;
#X floatatom 527 85 5 0 0 0 - - -;
#X obj 597 31 unpack f f;
#X obj 597 58 stripnote;
#X floatatom 597 85 5 0 0 0 - - -;
#X obj 667 31 unpack f f;
#X obj 667 58 stripnote;
#X floatatom 667 85 5 0 0 0 - - -;
#X obj 387 109 s b82;
#X obj 457 109 s b83;
#X obj 527 109 s b84;
#X obj 597 109 s b85;
#X obj 667 109 s b86;
#X obj 19 374 _sender r 2;
#X obj 19 401 _sender r 3;
#X obj 19 428 _sender r 4;
#X obj 19 455 _sender r 5;
#X obj 19 482 _sender r 6;
#X obj 19 509 _sender r 7;
#X obj 19 536 _sender r 8;
#X obj 99 374 _sender b 1;
#X obj 99 401 _sender b 2;
#X obj 99 428 _sender b 3;
#X obj 99 455 _sender b 4;
#X obj 99 482 _sender b 5;
#X obj 99 509 _sender b 6;
#X obj 99 536 _sender b 7;
#X obj 99 563 _sender b 8;
#X obj 179 401 _sender g 1;
#X obj 179 428 _sender g 2;
#X obj 179 455 _sender g 3;
#X obj 179 482 _sender g 4;
#X obj 179 509 _sender g 5;
#X obj 179 536 _sender g 6;
#X obj 179 563 _sender g 7;
#X obj 179 590 _sender g 8;
#X obj 104 -72 r b-8;
#X obj 20 -72 r r-8;
#X obj 118 10 noteout;
#X obj 20 -47 _mastern 48;
#X obj 104 -47 _mastern 49;
#X connect 0 0 1 0;
#X connect 0 1 2 0;
#X connect 0 2 3 0;
#X connect 1 0 4 0;
#X connect 1 0 7 0;
#X connect 2 0 4 2;
#X connect 3 0 4 1;
#X connect 4 0 82 0;
#X connect 5 0 6 0;
#X connect 5 1 107 0;
#X connect 5 2 108 0;
#X connect 5 3 109 0;
#X connect 5 4 110 0;
#X connect 5 5 111 0;
#X connect 5 6 112 0;
#X connect 5 7 113 0;
#X connect 8 0 114 0;
#X connect 8 1 115 0;
#X connect 8 2 116 0;
#X connect 8 3 117 0;
#X connect 8 4 118 0;
#X connect 8 5 119 0;
#X connect 8 6 120 0;
#X connect 8 7 121 0;
#X connect 9 0 122 0;
#X connect 9 1 123 0;
#X connect 9 2 124 0;
#X connect 9 3 125 0;
#X connect 9 4 126 0;
#X connect 9 5 127 0;
#X connect 9 6 128 0;
#X connect 9 7 129 0;
#X connect 10 0 14 0;
#X connect 10 1 15 0;
#X connect 10 2 16 0;
#X connect 10 3 17 0;
#X connect 10 4 18 0;
#X connect 10 5 19 0;
#X connect 10 6 20 0;
#X connect 10 7 21 0;
#X connect 11 0 12 0;
#X connect 11 1 12 1;
#X connect 12 0 13 0;
#X connect 13 0 10 0;
#X connect 22 0 74 0;
#X connect 22 1 75 0;
#X connect 22 2 76 0;
#X connect 22 3 77 0;
#X connect 22 4 78 0;
#X connect 22 5 79 0;
#X connect 22 6 80 0;
#X connect 22 7 81 0;
#X connect 23 0 24 0;
#X connect 23 1 24 1;
#X connect 24 0 25 0;
#X connect 25 0 22 0;
#X connect 26 0 66 0;
#X connect 26 1 67 0;
#X connect 26 2 68 0;
#X connect 26 3 69 0;
#X connect 26 4 70 0;
#X connect 26 5 71 0;
#X connect 26 6 72 0;
#X connect 26 7 73 0;
#X connect 27 0 28 0;
#X connect 27 1 28 1;
#X connect 28 0 29 0;
#X connect 29 0 26 0;
#X connect 30 0 58 0;
#X connect 30 1 59 0;
#X connect 30 2 60 0;
#X connect 30 3 61 0;
#X connect 30 4 62 0;
#X connect 30 5 63 0;
#X connect 30 6 64 0;
#X connect 30 7 65 0;
#X connect 31 0 32 0;
#X connect 31 1 32 1;
#X connect 32 0 33 0;
#X connect 33 0 30 0;
#X connect 34 0 50 0;
#X connect 34 1 51 0;
#X connect 34 2 52 0;
#X connect 34 3 53 0;
#X connect 34 4 54 0;
#X connect 34 5 55 0;
#X connect 34 6 56 0;
#X connect 34 7 57 0;
#X connect 35 0 36 0;
#X connect 35 1 36 1;
#X connect 36 0 37 0;
#X connect 37 0 34 0;
#X connect 38 0 42 0;
#X connect 38 1 43 0;
#X connect 38 2 44 0;
#X connect 38 3 45 0;
#X connect 38 4 46 0;
#X connect 38 5 47 0;
#X connect 38 6 48 0;
#X connect 38 7 49 0;
#X connect 39 0 40 0;
#X connect 39 1 40 1;
#X connect 40 0 41 0;
#X connect 41 0 38 0;
#X connect 82 0 5 0;
#X connect 82 1 8 0;
#X connect 82 2 9 0;
#X connect 82 3 11 0;
#X connect 82 4 23 0;
#X connect 82 5 27 0;
#X connect 82 6 31 0;
#X connect 82 7 35 0;
#X connect 82 8 39 0;
#X connect 82 9 83 0;
#X connect 82 10 87 0;
#X connect 82 11 90 0;
#X connect 82 12 93 0;
#X connect 82 13 96 0;
#X connect 82 14 99 0;
#X connect 83 0 84 0;
#X connect 83 1 84 1;
#X connect 84 0 85 0;
#X connect 85 0 86 0;
#X connect 87 0 88 0;
#X connect 87 1 88 1;
#X connect 88 0 89 0;
#X connect 89 0 102 0;
#X connect 90 0 91 0;
#X connect 90 1 91 1;
#X connect 91 0 92 0;
#X connect 92 0 103 0;
#X connect 93 0 94 0;
#X connect 93 1 94 1;
#X connect 94 0 95 0;
#X connect 95 0 104 0;
#X connect 96 0 97 0;
#X connect 96 1 97 1;
#X connect 97 0 98 0;
#X connect 98 0 105 0;
#X connect 99 0 100 0;
#X connect 99 1 100 1;
#X connect 100 0 101 0;
#X connect 101 0 106 0;
#X connect 130 0 134 0;
#X connect 131 0 133 0;
#X connect 133 0 1 0;
#X connect 133 0 132 0;
#X connect 133 1 132 1;
#X connect 133 1 2 0;
#X connect 133 2 132 2;
#X connect 133 2 3 0;
#X connect 134 0 132 0;
#X connect 134 0 1 0;
#X connect 134 1 132 1;
#X connect 134 1 2 0;
#X connect 134 2 132 2;
#X connect 134 2 3 0;
#X restore 17 33 pd left-buttons;
#X obj 17 246 bng 25 250 50 0 empty gb-1 empty 17 7 0 10 -262144 -4034
-128992;
#X obj 47 246 bng 25 250 50 0 empty gb-2 empty 17 7 0 10 -262144 -4034
-128992;
#X obj 77 246 bng 25 250 50 0 empty gb-3 empty 17 7 0 10 -262144 -4034
-128992;
#X obj 107 246 bng 25 250 50 0 empty gb-4 empty 17 7 0 10 -262144 -4034
-128992;
#X obj 137 246 bng 25 250 50 0 empty gb-5 empty 17 7 0 10 -262144 -4034
-128992;
#X obj 167 246 bng 25 250 50 0 empty gb-6 empty 17 7 0 10 -262144 -4034
-128992;
#X obj 197 246 bng 25 250 50 0 empty gb-7 empty 17 7 0 10 -262144 -4034
-128992;
#X obj 227 246 bng 25 250 50 0 empty gb-8 empty 17 7 0 10 -262144 -4034
-128992;
#X obj 17 196 bng 25 250 50 0 empty 57-1 empty 17 7 0 10 -262144 -4034
-128992;
#X obj 47 196 bng 25 250 50 0 empty 57-2 empty 17 7 0 10 -262144 -4034
-128992;
#X obj 77 196 bng 25 250 50 0 empty 57-3 empty 17 7 0 10 -262144 -4034
-128992;
#X obj 107 196 bng 25 250 50 0 empty 57-4 empty 17 7 0 10 -262144 -4034
-128992;
#X obj 137 196 bng 25 250 50 0 empty 57-5 empty 17 7 0 10 -262144 -4034
-128992;
#X obj 167 196 bng 25 250 50 0 empty 57-6 empty 17 7 0 10 -262144 -4034
-128992;
#X obj 197 196 bng 25 250 50 0 empty 57-7 empty 17 7 0 10 -262144 -4034
-128992;
#X obj 227 196 bng 25 250 50 0 empty 57-8 empty 17 7 0 10 -262144 -4034
-128992;
#X obj 17 166 bng 25 250 50 0 empty 56-1 empty 17 7 0 10 -262144 -4034
-128992;
#X obj 47 166 bng 25 250 50 0 empty 56-2 empty 17 7 0 10 -262144 -4034
-128992;
#X obj 77 166 bng 25 250 50 0 empty 56-3 empty 17 7 0 10 -262144 -4034
-128992;
#X obj 107 166 bng 25 250 50 0 empty 56-4 empty 17 7 0 10 -262144 -4034
-128992;
#X obj 137 166 bng 25 250 50 0 empty 56-5 empty 17 7 0 10 -262144 -4034
-128992;
#X obj 167 166 bng 25 250 50 0 empty 56-6 empty 17 7 0 10 -262144 -4034
-128992;
#X obj 197 166 bng 25 250 50 0 empty 56-7 empty 17 7 0 10 -262144 -4034
-128992;
#X obj 227 166 bng 25 250 50 0 empty 56-8 empty 17 7 0 10 -262144 -4034
-128992;
#X obj 17 136 bng 25 250 50 0 empty 55-1 empty 17 7 0 10 -262144 -4034
-128992;
#X obj 17 106 bng 25 250 50 0 empty 54-1 empty 17 7 0 10 -262144 -4034
-128992;
#X obj 17 76 bng 25 250 50 0 empty 53-1 empty 17 7 0 10 -262144 -4034
-128992;
#X obj 47 136 bng 25 250 50 0 empty 55-2 empty 17 7 0 10 -262144 -4034
-128992;
#X obj 77 136 bng 25 250 50 0 empty 55-3 empty 17 7 0 10 -262144 -4034
-128992;
#X obj 107 136 bng 25 250 50 0 empty 55-4 empty 17 7 0 10 -262144 -4034
-128992;
#X obj 137 136 bng 25 250 50 0 empty 55-5 empty 17 7 0 10 -262144 -4034
-128992;
#X obj 167 136 bng 25 250 50 0 empty 55-6 empty 17 7 0 10 -262144 -4034
-128992;
#X obj 197 136 bng 25 250 50 0 empty 55-7 empty 17 7 0 10 -262144 -4034
-128992;
#X obj 227 136 bng 25 250 50 0 empty 55-8 empty 17 7 0 10 -262144 -4034
-128992;
#X obj 47 106 bng 25 250 50 0 empty 54-2 empty 17 7 0 10 -262144 -4034
-128992;
#X obj 77 106 bng 25 250 50 0 empty 54-3 empty 17 7 0 10 -262144 -4034
-128992;
#X obj 107 106 bng 25 250 50 0 empty 54-4 empty 17 7 0 10 -262144 -4034
-128992;
#X obj 137 106 bng 25 250 50 0 empty 54-5 empty 17 7 0 10 -262144 -4034
-128992;
#X obj 167 106 bng 25 250 50 0 empty 54-6 empty 17 7 0 10 -262144 -4034
-128992;
#X obj 197 106 bng 25 250 50 0 empty 54-7 empty 17 7 0 10 -262144 -4034
-128992;
#X obj 227 106 bng 25 250 50 0 empty 54-8 empty 17 7 0 10 -262144 -4034
-128992;
#X obj 47 76 bng 25 250 50 0 empty 53-2 empty 17 7 0 10 -262144 -4034
-128992;
#X obj 77 76 bng 25 250 50 0 empty 53-3 empty 17 7 0 10 -262144 -4034
-128992;
#X obj 107 76 bng 25 250 50 0 empty 53-4 empty 17 7 0 10 -262144 -4034
-128992;
#X obj 137 76 bng 25 250 50 0 empty 53-5 empty 17 7 0 10 -262144 -4034
-128992;
#X obj 167 76 bng 25 250 50 0 empty 53-6 empty 17 7 0 10 -262144 -4034
-128992;
#X obj 197 76 bng 25 250 50 0 empty 53-7 empty 17 7 0 10 -262144 -4034
-128992;
#X obj 227 76 bng 25 250 50 0 empty 53-8 empty 17 7 0 10 -262144 -4034
-128992;
#X obj 262 246 bng 25 250 50 0 empty b81 empty 17 7 0 10 -262144 -4034
-128992;
#X obj 262 196 bng 25 250 50 0 empty b86 empty 17 7 0 10 -262144 -4034
-128992;
#X obj 262 166 bng 25 250 50 0 empty b85 empty 17 7 0 10 -262144 -4034
-128992;
#X obj 262 136 bng 25 250 50 0 empty b84 empty 17 7 0 10 -262144 -4034
-128992;
#X obj 262 106 bng 25 250 50 0 empty b83 empty 17 7 0 10 -262144 -4034
-128992;
#X obj 262 76 bng 25 250 50 0 empty b82 empty 17 7 0 10 -262144 -4034
-128992;
#N canvas 562 177 719 357 sliders 0;
#X obj 14 90 ctlin;
#X floatatom 14 117 5 0 0 0 - - -;
#X floatatom 54 117 5 0 0 0 - - -;
#X floatatom 94 117 5 0 0 0 - - -;
#X obj 14 141 pack f f f;
#X msg 14 246 0;
#X obj 14 219 select 1 2 3 4 5 6 7 8 9;
#X msg 29 273 1;
#X msg 45 246 2;
#X msg 61 273 3;
#X msg 76 246 4;
#X msg 92 273 5;
#X msg 108 246 6;
#X msg 123 273 7;
#X msg 139 246 8;
#X floatatom 14 195 5 0 0 0 - - -;
#X obj 14 6 ctlin 7 1;
#X obj 82 6 ctlin 7 2;
#X obj 14 63 s bs-1;
#X obj 82 63 s bs-2;
#X obj 150 6 ctlin 7 3;
#X obj 218 6 ctlin 7 4;
#X obj 286 6 ctlin 7 5;
#X obj 354 6 ctlin 7 6;
#X obj 422 6 ctlin 7 7;
#X obj 490 6 ctlin 7 8;
#X obj 150 63 s bs-3;
#X obj 218 63 s bs-4;
#X obj 286 63 s bs-5;
#X obj 354 63 s bs-6;
#X obj 422 63 s bs-7;
#X obj 490 63 s bs-8;
#X obj 559 63 s bs-9;
#X obj 632 63 s bs-10;
#X obj 632 6 ctlin 15 1;
#X obj 14 168 route 23;
#X obj 14 320 send track;
#X obj 558 29 r bs-9;
#X obj 559 6 ctlin 14 1;
#X connect 0 0 1 0;
#X connect 0 1 2 0;
#X connect 0 2 3 0;
#X connect 1 0 4 2;
#X connect 2 0 4 0;
#X connect 3 0 4 1;
#X connect 4 0 35 0;
#X connect 5 0 36 0;
#X connect 6 0 5 0;
#X connect 6 1 7 0;
#X connect 6 2 8 0;
#X connect 6 3 9 0;
#X connect 6 4 10 0;
#X connect 6 5 11 0;
#X connect 6 6 12 0;
#X connect 6 7 13 0;
#X connect 6 8 14 0;
#X connect 7 0 36 0;
#X connect 8 0 36 0;
#X connect 9 0 36 0;
#X connect 10 0 36 0;
#X connect 11 0 36 0;
#X connect 12 0 36 0;
#X connect 13 0 36 0;
#X connect 14 0 36 0;
#X connect 15 0 6 0;
#X connect 16 0 18 0;
#X connect 17 0 19 0;
#X connect 20 0 26 0;
#X connect 21 0 27 0;
#X connect 22 0 28 0;
#X connect 23 0 29 0;
#X connect 24 0 30 0;
#X connect 25 0 31 0;
#X connect 34 0 33 0;
#X connect 35 0 15 0;
#X connect 37 0 31 0;
#X connect 37 0 30 0;
#X connect 37 0 29 0;
#X connect 37 0 28 0;
#X connect 37 0 27 0;
#X connect 37 0 26 0;
#X connect 37 0 19 0;
#X connect 37 0 18 0;
#X connect 38 0 32 0;
#X restore 17 627 pd sliders;
#N canvas -7 514 958 464 knobs 0;
#X obj 18 -7 ctlin;
#X floatatom 18 20 5 0 0 0 - - -;
#X floatatom 58 20 5 0 0 0 - - -;
#X floatatom 98 20 5 0 0 0 - - -;
#X obj 279 255 s k20;
#X obj 279 281 s k21;
#X obj 279 308 s k22;
#X obj 279 335 s k23;
#X obj 74 229 s k16;
#X obj 74 256 s k17;
#X obj 74 283 s k18;
#X obj 74 310 s k19;
#X obj 18 177 route 52 53 54 55 48 49 50 51;
#X obj 18 203 s k52;
#X obj 18 230 s k53;
#X obj 18 257 s k54;
#X obj 18 284 s k55;
#X obj 18 311 s k48;
#X obj 18 338 s k49;
#X obj 17 392 s k51;
#X obj 18 365 s k50;
#X obj 75 337 s fs1;
#X obj 75 362 s fs2;
#X obj 245 32 r k19;
#X obj 309 101 r track;
#X obj 309 151 + 1;
#X obj 291 176 f;
#X obj 245 202 ctlout, f 7;
#X obj 245 176 f;
#X obj 245 54 t b f;
#X obj 245 101 until, f 7;
#X obj 245 126 counter 16 18;
#X obj 291 54 sel 18;
#X obj 245 151 t b f b;
#X obj 245 78 delay 150;
#X obj 193 333 ctlout 23;
#X obj 193 307 _masterd, f 9;
#X obj 193 254 _masterd, f 9;
#X obj 193 281 ctlout 22;
#X obj 121 334 ctlout 21;
#X obj 121 307 _masterd, f 9;
#X obj 121 254 _masterd, f 9;
#X obj 121 281 ctlout 20;
#X obj 18 72 pack f f;
#X obj 74 202 route 16 17 18 19 64 67;
#X obj 279 230 route 20 21 22 23;
#X obj 121 71 pack f f f;
#X obj 121 125 route 9 float;
#X obj 121 229 route 20 21 22 23, f 21;
#X connect 0 0 1 0;
#X connect 0 1 2 0;
#X connect 0 2 3 0;
#X connect 1 0 43 1;
#X connect 1 0 46 2;
#X connect 2 0 43 0;
#X connect 2 0 46 1;
#X connect 3 0 46 0;
#X connect 12 0 13 0;
#X connect 12 1 14 0;
#X connect 12 2 15 0;
#X connect 12 3 16 0;
#X connect 12 4 17 0;
#X connect 12 5 18 0;
#X connect 12 6 20 0;
#X connect 12 7 19 0;
#X connect 23 0 29 0;
#X connect 24 0 25 0;
#X connect 25 0 26 1;
#X connect 26 0 27 2;
#X connect 28 0 27 0;
#X connect 29 0 34 0;
#X connect 29 1 28 1;
#X connect 30 0 31 0;
#X connect 31 0 32 0;
#X connect 31 0 33 0;
#X connect 32 0 30 1;
#X connect 33 0 28 0;
#X connect 33 1 27 1;
#X connect 33 2 26 0;
#X connect 34 0 30 0;
#X connect 36 0 35 0;
#X connect 36 1 35 2;
#X connect 37 0 38 0;
#X connect 37 1 38 2;
#X connect 40 0 39 0;
#X connect 40 1 39 2;
#X connect 41 0 42 0;
#X connect 41 1 42 2;
#X connect 43 0 12 0;
#X connect 43 0 44 0;
#X connect 44 0 8 0;
#X connect 44 1 9 0;
#X connect 44 2 10 0;
#X connect 44 3 11 0;
#X connect 44 4 21 0;
#X connect 44 5 22 0;
#X connect 45 0 4 0;
#X connect 45 1 5 0;
#X connect 45 2 6 0;
#X connect 45 3 7 0;
#X connect 46 0 47 0;
#X connect 47 0 48 0;
#X connect 47 1 45 0;
#X connect 48 0 41 0;
#X connect 48 1 40 0;
#X connect 48 2 37 0;
#X connect 48 3 36 0;
#X restore 464 33 pd knobs;
#X obj 342 554 bng 25 250 50 0 empty play play 1 12 0 10 -162280 -4034
-262144;
#X obj 386 257 bng 15 250 50 0 empty up ^ 5 8 0 10 -33289 -162280 -262144
;
#X obj 386 277 bng 15 250 50 0 empty down v 5 8 0 10 -33289 -162280
-262144;
#X obj 406 267 bng 15 250 50 0 empty right > 5 7 0 10 -33289 -162280
-262144;
#X obj 366 267 bng 15 250 50 0 empty left < 5 7 0 10 -33289 -162280
-262144;
#X obj 321 277 bng 15 250 50 0 empty shift shift -7 -8 0 10 -228856
-4034 -258113;
#X obj 440 277 bng 15 250 50 0 empty minus - 5 7 0 10 -262144 -4034
-1;
#X obj 470 277 bng 15 250 50 0 empty plus + 5 7 0 10 -262144 -1 -1
;
#X obj 455 258 bng 15 250 50 0 tap tap tap -1 -8 0 10 -262144 -4034
-1;
#X obj 317 501 bng 25 250 50 0 empty red-5 Detail -4 35 0 10 -228856
-4034 -66577;
#N canvas 953 0 958 464 ctrl-btns 0;
#X floatatom -6 126 5 0 0 0 - - -;
#X obj -6 236 s play;
#X obj -6 99 stripnote;
#X obj -6 22 notein 1;
#X obj -6 211 bng 15 250 50 0 empty empty empty 17 7 0 10 -262144 -1
-1;
#X obj -6 261 bng 15 250 50 0 empty empty empty 17 7 0 10 -262144 -1
-1;
#X obj -6 311 bng 15 250 50 0 empty empty empty 17 7 0 10 -262144 -1
-1;
#X obj -6 286 s stop;
#X obj -6 336 s rec;
#X obj 59 211 s red-5;
#X obj 59 238 s red-6;
#X obj 59 286 s red-8;
#X obj -6 184 route 91 92 93 62 63 64 65;
#X obj 410 183 route 58 59 60 61;
#X obj 410 126 pack f f;
#X floatatom 410 102 5 0 0 0 - - -;
#X floatatom 455 102 5 0 0 0 - - -;
#X floatatom 410 220 5 0 0 0 - - -;
#X floatatom 450 220 5 0 0 0 - - -;
#X floatatom 490 220 5 0 0 0 - - -;
#X floatatom 530 220 5 0 0 0 - - -;
#X obj 410 244 select 0 127;
#X obj 410 271 bng 15 250 50 0 empty empty empty 17 7 0 10 -262144
-1 -1;
#X obj 444 271 bng 15 250 50 0 empty empty empty 17 7 0 10 -262144
-1 -1;
#X floatatom 410 327 5 0 0 0 - - -;
#X msg 410 300 0;
#X msg 444 300 1;
#X obj 410 351 s red-1;
#X obj 450 378 select 0 127;
#X obj 450 405 bng 15 250 50 0 empty empty empty 17 7 0 10 -262144
-1 -1;
#X obj 484 405 bng 15 250 50 0 empty empty empty 17 7 0 10 -262144
-1 -1;
#X floatatom 450 461 5 0 0 0 - - -;
#X msg 450 434 0;
#X msg 484 434 1;
#X obj 490 244 select 0 127;
#X obj 490 271 bng 15 250 50 0 empty empty empty 17 7 0 10 -262144
-1 -1;
#X obj 524 271 bng 15 250 50 0 empty empty empty 17 7 0 10 -262144
-1 -1;
#X floatatom 490 327 5 0 0 0 - - -;
#X msg 490 300 0;
#X msg 524 300 1;
#X obj 530 378 select 0 127;
#X obj 530 405 bng 15 250 50 0 empty empty empty 17 7 0 10 -262144
-1 -1;
#X obj 564 405 bng 15 250 50 0 empty empty empty 17 7 0 10 -262144
-1 -1;
#X floatatom 530 461 5 0 0 0 - - -;
#X msg 530 434 0;
#X msg 564 434 1;
#X obj 530 485 s red-4;
#X obj 450 485 s red-2;
#X obj 490 351 s red-3;
#X obj 186 236 s shift;
#X obj 186 211 bng 15 250 50 0 empty empty empty 17 7 0 10 -262144
-1 -1;
#X obj 212 286 s left;
#X obj 231 336 s right;
#X obj 212 261 bng 15 250 50 0 empty empty empty 17 7 0 10 -262144
-1 -1;
#X obj 231 311 bng 15 250 50 0 empty empty empty 17 7 0 10 -262144
-1 -1;
#X obj 254 211 bng 15 250 50 0 empty empty empty 17 7 0 10 -262144
-1 -1;
#X obj 254 236 s down;
#X obj 277 261 bng 15 250 50 0 empty empty empty 17 7 0 10 -262144
-1 -1;
#X obj 277 286 s up;
#X obj 186 184 route 98 97 96 95 94 99 100 101;
#X obj 300 211 bng 15 250 50 0 empty empty empty 17 7 0 10 -262144
-1 -1;
#X obj 300 236 s tap;
#X obj 323 261 bng 15 250 50 0 empty empty empty 17 7 0 10 -262144
-1 -1;
#X obj 323 286 s plus;
#X obj 346 211 bng 15 250 50 0 empty empty empty 17 7 0 10 -262144
-1 -1;
#X obj 346 236 s minus;
#X floatatom 570 220 5 0 0 0 - - -;
#X floatatom 610 220 5 0 0 0 - - -;
#X floatatom 650 220 5 0 0 0 - - -;
#X floatatom 690 220 5 0 0 0 - - -;
#X obj 570 244 select 0 127;
#X obj 570 271 bng 15 250 50 0 empty empty empty 17 7 0 10 -262144
-1 -1;
#X obj 604 271 bng 15 250 50 0 empty empty empty 17 7 0 10 -262144
-1 -1;
#X floatatom 570 327 5 0 0 0 - - -;
#X msg 570 300 0;
#X msg 604 300 1;
#X obj 610 378 select 0 127;
#X obj 610 405 bng 15 250 50 0 empty empty empty 17 7 0 10 -262144
-1 -1;
#X obj 644 405 bng 15 250 50 0 empty empty empty 17 7 0 10 -262144
-1 -1;
#X floatatom 610 461 5 0 0 0 - - -;
#X msg 610 434 0;
#X msg 644 434 1;
#X obj 650 244 select 0 127;
#X obj 650 271 bng 15 250 50 0 empty empty empty 17 7 0 10 -262144
-1 -1;
#X obj 684 271 bng 15 250 50 0 empty empty empty 17 7 0 10 -262144
-1 -1;
#X floatatom 650 327 5 0 0 0 - - -;
#X msg 650 300 0;
#X msg 684 300 1;
#X obj 690 378 select 0 127;
#X obj 690 405 bng 15 250 50 0 empty empty empty 17 7 0 10 -262144
-1 -1;
#X obj 724 405 bng 15 250 50 0 empty empty empty 17 7 0 10 -262144
-1 -1;
#X floatatom 690 461 5 0 0 0 - - -;
#X msg 690 434 0;
#X msg 724 434 1;
#X obj 570 183 route 87 88 89 90;
#X obj 570 351 s pan;
#X obj 610 485 s send-A;
#X obj 650 351 s send-B;
#X obj 690 485 s send-C;
#X obj 59 261 s red-7;
#X connect 0 0 12 0;
#X connect 0 0 59 0;
#X connect 2 0 0 0;
#X connect 3 0 2 0;
#X connect 3 0 15 0;
#X connect 3 1 2 1;
#X connect 3 1 16 0;
#X connect 4 0 1 0;
#X connect 5 0 7 0;
#X connect 6 0 8 0;
#X connect 12 0 4 0;
#X connect 12 1 5 0;
#X connect 12 2 6 0;
#X connect 12 3 9 0;
#X connect 12 4 10 0;
#X connect 12 5 99 0;
#X connect 12 6 11 0;
#X connect 13 0 17 0;
#X connect 13 1 18 0;
#X connect 13 2 19 0;
#X connect 13 3 20 0;
#X connect 14 0 13 0;
#X connect 14 0 94 0;
#X connect 15 0 14 0;
#X connect 16 0 14 1;
#X connect 17 0 21 0;
#X connect 18 0 28 0;
#X connect 19 0 34 0;
#X connect 20 0 40 0;
#X connect 21 0 22 0;
#X connect 21 1 23 0;
#X connect 22 0 25 0;
#X connect 23 0 26 0;
#X connect 24 0 27 0;
#X connect 25 0 24 0;
#X connect 26 0 24 0;
#X connect 28 0 29 0;
#X connect 28 1 30 0;
#X connect 29 0 32 0;
#X connect 30 0 33 0;
#X connect 31 0 47 0;
#X connect 32 0 31 0;
#X connect 33 0 31 0;
#X connect 34 0 35 0;
#X connect 34 1 36 0;
#X connect 35 0 38 0;
#X connect 36 0 39 0;
#X connect 37 0 48 0;
#X connect 38 0 37 0;
#X connect 39 0 37 0;
#X connect 40 0 41 0;
#X connect 40 1 42 0;
#X connect 41 0 44 0;
#X connect 42 0 45 0;
#X connect 43 0 46 0;
#X connect 44 0 43 0;
#X connect 45 0 43 0;
#X connect 50 0 49 0;
#X connect 53 0 51 0;
#X connect 54 0 52 0;
#X connect 55 0 56 0;
#X connect 57 0 58 0;
#X connect 59 0 50 0;
#X connect 59 1 53 0;
#X connect 59 2 54 0;
#X connect 59 3 55 0;
#X connect 59 4 57 0;
#X connect 59 5 60 0;
#X connect 59 6 62 0;
#X connect 59 7 64 0;
#X connect 60 0 61 0;
#X connect 62 0 63 0;
#X connect 64 0 65 0;
#X connect 66 0 70 0;
#X connect 67 0 76 0;
#X connect 68 0 82 0;
#X connect 69 0 88 0;
#X connect 70 0 71 0;
#X connect 70 1 72 0;
#X connect 71 0 74 0;
#X connect 72 0 75 0;
#X connect 73 0 95 0;
#X connect 74 0 73 0;
#X connect 75 0 73 0;
#X connect 76 0 77 0;
#X connect 76 1 78 0;
#X connect 77 0 80 0;
#X connect 78 0 81 0;
#X connect 79 0 96 0;
#X connect 80 0 79 0;
#X connect 81 0 79 0;
#X connect 82 0 83 0;
#X connect 82 1 84 0;
#X connect 83 0 86 0;
#X connect 84 0 87 0;
#X connect 85 0 97 0;
#X connect 86 0 85 0;
#X connect 87 0 85 0;
#X connect 88 0 89 0;
#X connect 88 1 90 0;
#X connect 89 0 92 0;
#X connect 90 0 93 0;
#X connect 91 0 98 0;
#X connect 92 0 91 0;
#X connect 93 0 91 0;
#X connect 94 0 66 0;
#X connect 94 1 67 0;
#X connect 94 2 68 0;
#X connect 94 3 69 0;
#X restore 421 627 pd ctrl-btns;
#X obj 392 554 bng 25 250 50 0 empty stop stop 2 12 0 10 -162280 -257985
-262144;
#X obj 442 554 bng 25 250 50 0 empty rec rec 4 12 0 10 -162280 -258113
-262144;
#X obj 367 501 bng 25 250 50 0 empty red-6 Quant. -2 35 0 10 -228856
-257985 -66577;
#X obj 417 501 bng 25 250 50 0 empty red-7 Dub 4 35 0 10 -228856 -4034
-66577;
#X obj 467 501 bng 25 250 50 0 empty red-8 Metro -2 35 0 10 -228856
-4034 -66577;
#X obj 317 447 tgl 25 0 empty red-1 Clip 0 35 0 10 -191407 -4034 -1
0 1;
#X obj 367 447 tgl 25 0 empty red-2 Device -5 35 0 10 -191407 -4034
-1 0 1;
#X obj 417 447 tgl 25 0 empty red-3 <= 5 35 0 10 -191407 -4034 -1 0
1;
#X obj 467 447 tgl 25 0 empty red-4 => 5 35 0 10 -191407 -4034 -1 0
1;
#X floatatom 314 117 5 0 0 0 - - -;
#X floatatom 364 117 5 0 0 0 - - -;
#X floatatom 414 117 5 0 0 0 - - -;
#X floatatom 464 117 5 0 0 0 - - -;
#X floatatom 314 177 5 0 0 0 - - -;
#X floatatom 364 177 5 0 0 0 - - -;
#X floatatom 414 177 5 0 0 0 - - -;
#X floatatom 464 177 5 0 0 0 - - -;
#X floatatom 314 359 5 0 0 0 - - -;
#X floatatom 364 359 5 0 0 0 - - -;
#X floatatom 414 359 5 0 0 0 - - -;
#X floatatom 464 359 5 0 0 0 - - -;
#X floatatom 314 419 5 0 0 0 - - -;
#X floatatom 364 419 5 0 0 0 - - -;
#X floatatom 414 419 5 0 0 0 - - -;
#X floatatom 464 419 5 0 0 0 - - -;
#X text 358 240 Bank Select;
#X text 259 403 Arm;
#X text 256 378 Solo;
#X text 259 353 Act.;
#X text 257 60 Scene;
#X text 14 230 clip stop;
#X text 264 230 all;
#X text 311 60 Track Control;
#X text 311 300 Device Control;
#N canvas 705 95 184 195 ins-overview 0;
#X floatatom 77 185 3 0 0 0 - - -;
#X obj 26 108 notein;
#X obj 26 159 stripnote;
#X floatatom 26 184 3 0 0 0 - - -;
#X floatatom 56 54 3 0 0 0 - - -;
#X floatatom 26 54 3 0 0 0 - - -;
#X obj 26 27 ctlin;
#X obj 26 204 bng 20 250 50 0 empty empty empty 17 7 0 10 -262144 -1
-1;
#X obj 26 78 bng 20 250 50 0 empty empty empty 17 7 0 10 -262144 -1
-1;
#X floatatom 86 54 5 0 0 0 - - -;
#X floatatom 26 135 5 0 0 0 - - -;
#X floatatom 77 135 5 0 0 0 - - -;
#X floatatom 117 135 5 0 0 0 - - -;
#X connect 1 0 10 0;
#X connect 1 1 11 0;
#X connect 1 2 12 0;
#X connect 2 0 3 0;
#X connect 2 1 0 0;
#X connect 3 0 7 0;
#X connect 5 0 8 0;
#X connect 6 0 5 0;
#X connect 6 1 4 0;
#X connect 6 2 9 0;
#X connect 10 0 2 0;
#X connect 11 0 2 1;
#X restore 191 627 pd ins-overview;
#X text 16 10 APC40;
#X obj 317 203 tgl 25 0 empty pan Pan 4 13 0 10 -191407 -4034 -1 0
1;
#X obj 367 203 tgl 25 0 empty send-A A 9 13 0 10 -191407 -4034 -1 0
1;
#X obj 417 203 tgl 25 0 empty send-B B 9 13 0 10 -191407 -4034 -1 0
1;
#X obj 467 203 tgl 25 0 empty send-C C 9 13 0 10 -191407 -4034 -1 0
1;
#X text 28 309 1;
#X text 58 309 2;
#X text 88 309 3;
#X text 118 309 4;
#X text 148 309 5;
#X text 178 309 6;
#X text 208 309 7;
#X text 238 309 8;
#X text 259 309 Mas.;
#X obj 314 90 r k48;
#X obj 364 90 r k49;
#X obj 414 90 r k50;
#X obj 464 90 r k51;
#X obj 314 150 r k52;
#X obj 364 150 r k53;
#X obj 414 150 r k54;
#X obj 464 150 r k55;
#X obj 464 330 r k19;
#X obj 414 330 r k18;
#X obj 364 330 r k17;
#X obj 314 330 r k16;
#X obj 314 390 r k20;
#X obj 364 390 r k21;
#X obj 414 390 r k22;
#X obj 464 390 r k23;
#N canvas -7 0 958 464 init 0;
#X msg 45 69 127;
#X obj 94 79 s b-8;
#X msg 253 69 64;
#X obj 253 151 t b f, f 6;
#X obj 253 180 until;
#X obj 253 285 ctlout;
#X obj 253 205 counter 48 55;
#X obj 295 180 sel 55;
#X obj 253 256 f;
#X obj -30 206 noteout;
#X obj -30 152 t b f;
#X obj 343 80 s k23;
#X obj 253 230 t b f;
#X obj 94 57 s r-8;
#X obj 288 101 s bs-10;
#X obj 260 123 ctlout 15 1;
#X obj 87 101 s bs-9;
#X obj 152 151 t b f;
#X obj 152 181 until;
#X obj 152 357 ctlout, f 7;
#X obj 45 4 loadbang;
#X obj 24 5 bng 15 250 50 0 empty empty empty 17 7 0 10 -262144 -1
-1;
#X obj 45 31 t b;
#X obj 152 230 t b f;
#X obj 152 257 until;
#X obj 152 281 counter 1 9;
#X obj 196 257 sel 9;
#X obj 152 306 t b b f;
#X obj 152 331 f, f 2;
#X obj 175 331 f, f 2;
#X obj 45 151 t b f;
#X obj 45 181 until;
#X obj 45 357 ctlout, f 7;
#X obj 45 230 t b f;
#X obj 45 257 until;
#X obj 45 281 counter 1 9;
#X obj 89 257 sel 9;
#X obj 45 306 t b b f;
#X obj 45 331 f, f 2;
#X obj 68 331 f, f 2;
#X obj 45 205 counter 16 19;
#X obj 88 181 sel 19;
#X obj 52 123 ctlout 14 1;
#X obj 312 260 route 48 49 50 51 52 53 54 55;
#X obj 312 284 s k48;
#X obj 312 234 pack f f;
#X obj 312 305 s k49;
#X obj 312 326 s k50;
#X obj 312 347 s k51;
#X obj 312 368 s k52;
#X obj 312 389 s k53;
#X obj 312 410 s k54;
#X obj 312 431 s k55;
#X obj 302 59 s k20;
#X obj 302 80 s k21;
#X obj 343 59 s k22;
#X obj 94 36 s k16;
#X obj 135 36 s k17;
#X obj 135 57 s k18;
#X obj 135 79 s k19;
#X obj 195 181 sel 23;
#X obj 152 205 counter 20 23;
#X msg -30 180 48 49;
#X connect 0 0 10 0;
#X connect 0 0 1 0;
#X connect 0 0 13 0;
#X connect 0 0 16 0;
#X connect 0 0 30 0;
#X connect 0 0 42 0;
#X connect 0 0 56 0;
#X connect 0 0 57 0;
#X connect 2 0 3 0;
#X connect 2 0 17 0;
#X connect 2 0 11 0;
#X connect 2 0 14 0;
#X connect 2 0 15 0;
#X connect 2 0 55 0;
#X connect 2 0 54 0;
#X connect 2 0 53 0;
#X connect 3 0 4 0;
#X connect 3 1 8 1;
#X connect 3 1 45 1;
#X connect 4 0 6 0;
#X connect 6 0 7 0;
#X connect 6 0 12 0;
#X connect 6 0 45 0;
#X connect 7 0 4 1;
#X connect 8 0 5 0;
#X connect 10 0 62 0;
#X connect 10 1 9 1;
#X connect 12 0 8 0;
#X connect 12 1 5 1;
#X connect 17 0 18 0;
#X connect 17 1 28 1;
#X connect 18 0 61 0;
#X connect 20 0 22 0;
#X connect 21 0 22 0;
#X connect 22 0 0 0;
#X connect 22 0 2 0;
#X connect 23 0 24 0;
#X connect 23 1 29 1;
#X connect 24 0 25 0;
#X connect 25 0 26 0;
#X connect 25 0 27 0;
#X connect 26 0 24 1;
#X connect 27 0 28 0;
#X connect 27 1 29 0;
#X connect 27 2 19 2;
#X connect 28 0 19 0;
#X connect 29 0 19 1;
#X connect 30 0 31 0;
#X connect 30 1 38 1;
#X connect 31 0 40 0;
#X connect 33 0 34 0;
#X connect 33 1 39 1;
#X connect 34 0 35 0;
#X connect 35 0 36 0;
#X connect 35 0 37 0;
#X connect 36 0 34 1;
#X connect 37 0 38 0;
#X connect 37 1 39 0;
#X connect 37 2 32 2;
#X connect 38 0 32 0;
#X connect 39 0 32 1;
#X connect 40 0 33 0;
#X connect 40 0 41 0;
#X connect 41 0 31 1;
#X connect 43 0 44 0;
#X connect 43 1 46 0;
#X connect 43 2 47 0;
#X connect 43 3 48 0;
#X connect 43 4 49 0;
#X connect 43 5 50 0;
#X connect 43 6 51 0;
#X connect 43 7 52 0;
#X connect 45 0 43 0;
#X connect 60 0 18 1;
#X connect 61 0 23 0;
#X connect 61 0 60 0;
#X connect 62 0 9 0;
#X restore 73 11 pd init;
#X text 14 60 Clip Launch/Session;
#N canvas 0 50 450 300 footswitch 0;
#X obj 75 49 s fs1;
#X obj 185 49 s fs2;
#X obj 39 73 route 0 127;
#X obj 39 97 s play;
#X obj 92 97 s rec;
#X obj 149 97 s stop;
#X obj 149 73 route 127;
#X obj 39 19 ctlin 64 1;
#X obj 149 19 ctlin 67 1;
#X connect 2 0 3 0;
#X connect 2 1 4 0;
#X connect 6 0 5 0;
#X connect 7 0 0 0;
#X connect 7 0 2 0;
#X connect 8 0 1 0;
#X connect 8 0 6 0;
#X restore 312 33 pd footswitch;
#X obj 415 33 tgl 15 0 empty fs1 FS1 0 22 0 10 -262144 -1 -1 0 1;
#X obj 437 33 tgl 15 0 empty fs2 FS2 0 22 0 10 -262144 -1 -1 0 1;
#X connect 0 0 10 0;
#X connect 1 0 11 0;
#X connect 2 0 12 0;
#X connect 3 0 13 0;
#X connect 4 0 14 0;
#X connect 5 0 15 0;
#X connect 6 0 16 0;
#X connect 7 0 17 0;
#X connect 8 0 18 0;
#X connect 9 0 19 0;
#X connect 162 0 122 0;
#X connect 163 0 123 0;
#X connect 164 0 124 0;
#X connect 165 0 125 0;
#X connect 166 0 126 0;
#X connect 167 0 127 0;
#X connect 168 0 128 0;
#X connect 169 0 129 0;
#X connect 170 0 133 0;
#X connect 171 0 132 0;
#X connect 172 0 131 0;
#X connect 173 0 130 0;
#X connect 174 0 134 0;
#X connect 175 0 135 0;
#X connect 176 0 136 0;
#X connect 177 0 137 0;
#X restore 34 -14 pd apc40;
#X obj 359 -35 tgl 18 0 empty play-state play -2 25 0 10 -262144 -4034
-1 0 1;
#X obj 359 -1 tgl 18 0 empty rec-state rec 0 25 0 10 -262144 -258113
-1 0 1;
#X obj 122 -35 bng 18 250 50 0 empty beat tap -1 25 0 10 -262144 -4034
-1;
#X obj 154 -35 bng 18 250 50 0 empty start start -6 25 0 10 -262144
-257985 -1;
#N canvas 475 173 450 300 phrase 0;
#X floatatom 53 143 5 0 0 0 - - -;
#X msg 40 71 1;
#X msg 97 71 0;
#X obj 38 229 makefilename ./sounds/phrase-%d.wav;
#X obj 40 13 r minus;
#X obj 97 37 r plus;
#X obj 97 13 loadbang;
#X obj 53 114 counter 1 16;
#X obj 38 255 s filename;
#X obj 133 161 s phrase;
#X obj 201 113 * 127;
#X obj 201 137 t b f;
#X msg 201 168 63;
#X obj 201 197 noteout;
#X obj 201 37 t b;
#X obj 201 13 r red-7;
#X obj 245 89 s dub;
#X obj 201 60 counter 1 0 1;
#X obj 287 89 r track;
#X obj 287 113 + 1;
#X obj 287 137 t b f;
#X connect 0 0 3 0;
#X connect 0 0 9 0;
#X connect 1 0 7 1;
#X connect 2 0 7 1;
#X connect 3 0 8 0;
#X connect 4 0 1 0;
#X connect 4 0 7 0;
#X connect 5 0 2 0;
#X connect 5 0 7 0;
#X connect 6 0 7 0;
#X connect 7 0 0 0;
#X connect 10 0 11 0;
#X connect 11 0 12 0;
#X connect 11 1 13 1;
#X connect 12 0 13 0;
#X connect 14 0 17 0;
#X connect 15 0 14 0;
#X connect 17 0 10 0;
#X connect 17 0 16 0;
#X connect 18 0 19 0;
#X connect 19 0 20 0;
#X connect 20 0 12 0;
#X connect 20 1 13 2;
#X restore 27 7 pd phrase;
#X floatatom 121 28 5 0 0 1 bars bars -;
#X floatatom 121 7 5 0 0 3 - phrase -;
#N canvas 953 516 958 464 recorder 0;
#X obj 228 35 adc~ 1 2 3 4 5 6 7 8, f 42;
#X obj 265 125 r r-7;
#X obj 283 73 outlet~;
#X obj 332 97 outlet~;
#X obj 380 73 outlet~;
#X obj 427 97 outlet~;
#X obj 475 73 outlet~;
#X obj 522 97 outlet~;
#X msg 178 232 start;
#X msg 145 257 stop;
#X msg 101 0 1;
#X obj 145 207 sel 0 1, f 10;
#X obj 145 35 v rec-state;
#X msg 145 0 0;
#X obj 178 -46 r play;
#X obj 145 -24 r stop;
#X obj 101 -24 r rec;
#X obj 101 -46 r start;
#X obj 239 73 +~;
#X obj 240 97 outlet~;
#X obj 145 60 s rec-state;
#X obj 228 291 writesf~ 7, f 41;
#X obj 234 203 r end;
#X msg 278 228 set open -bytes 4 \$1;
#X msg 235 255 open -bytes 4 ./sounds/phrase-1.wav;
#X obj 278 203 r filename;
#X obj 240 176 *~ 1;
#X obj 285 176 *~ 1;
#X obj 332 176 *~ 1;
#X obj 380 176 *~ 1;
#X obj 427 176 *~ 1;
#X obj 474 176 *~ 1;
#X obj 522 176 *~ 1;
#X floatatom 265 150 5 0 0 0 - - -;
#X floatatom 310 150 5 0 0 0 - - -;
#X floatatom 357 150 5 0 0 0 - - -;
#X floatatom 405 150 5 0 0 0 - - -;
#X floatatom 452 150 5 0 0 0 - - -;
#X floatatom 499 150 5 0 0 0 - - -;
#X floatatom 547 150 5 0 0 0 - - -;
#X obj 228 -69 inlet~;
#X obj 275 -69 inlet~;
#X obj 323 -69 inlet~;
#X obj 369 -69 inlet~;
#X obj 417 -69 inlet~;
#X obj 463 -69 inlet~;
#X obj 510 -69 inlet~;
#X obj 387 -46 r dub;
#X obj 310 125 r r-1;
#X obj 357 125 r r-2;
#X obj 405 125 r r-3;
#X obj 452 125 r r-4;
#X obj 499 125 r r-5;
#X obj 547 125 r r-6;
#X obj 275 0 *~;
#X obj 227 0 *~;
#X obj 322 0 *~;
#X obj 369 0 *~;
#X obj 416 0 *~;
#X obj 463 0 *~;
#X obj 510 0 *~;
#X obj 178 0 i;
#X obj 155 108 &&;
#X obj 155 131 sel 1;
#X obj 155 155 delay 500;
#X obj 155 179 s play;
#X obj 173 85 r clip;
#X connect 0 0 18 0;
#X connect 0 1 18 1;
#X connect 0 2 2 0;
#X connect 0 2 27 0;
#X connect 0 3 3 0;
#X connect 0 3 28 0;
#X connect 0 4 4 0;
#X connect 0 4 29 0;
#X connect 0 5 5 0;
#X connect 0 5 30 0;
#X connect 0 6 6 0;
#X connect 0 6 31 0;
#X connect 0 7 7 0;
#X connect 0 7 32 0;
#X connect 1 0 33 0;
#X connect 8 0 21 0;
#X connect 9 0 21 0;
#X connect 10 0 12 0;
#X connect 11 0 9 0;
#X connect 11 1 8 0;
#X connect 12 0 11 0;
#X connect 12 0 20 0;
#X connect 12 0 62 0;
#X connect 13 0 12 0;
#X connect 13 0 9 0;
#X connect 14 0 61 0;
#X connect 15 0 13 0;
#X connect 16 0 10 0;
#X connect 17 0 12 0;
#X connect 18 0 19 0;
#X connect 18 0 26 0;
#X connect 22 0 24 0;
#X connect 23 0 24 0;
#X connect 24 0 21 0;
#X connect 25 0 23 0;
#X connect 26 0 21 0;
#X connect 27 0 21 1;
#X connect 28 0 21 2;
#X connect 29 0 21 3;
#X connect 30 0 21 4;
#X connect 31 0 21 5;
#X connect 32 0 21 6;
#X connect 33 0 26 1;
#X connect 34 0 27 1;
#X connect 35 0 28 1;
#X connect 36 0 29 1;
#X connect 37 0 30 1;
#X connect 38 0 31 1;
#X connect 39 0 32 1;
#X connect 40 0 19 0;
#X connect 40 0 55 0;
#X connect 41 0 2 0;
#X connect 41 0 54 0;
#X connect 42 0 3 0;
#X connect 42 0 56 0;
#X connect 43 0 4 0;
#X connect 43 0 57 0;
#X connect 44 0 5 0;
#X connect 44 0 58 0;
#X connect 45 0 6 0;
#X connect 45 0 59 0;
#X connect 46 0 7 0;
#X connect 46 0 60 0;
#X connect 47 0 54 1;
#X connect 47 0 55 1;
#X connect 47 0 56 1;
#X connect 47 0 57 1;
#X connect 47 0 58 1;
#X connect 47 0 59 1;
#X connect 47 0 60 1;
#X connect 47 0 61 1;
#X connect 48 0 34 0;
#X connect 49 0 35 0;
#X connect 50 0 36 0;
#X connect 51 0 37 0;
#X connect 52 0 38 0;
#X connect 53 0 39 0;
#X connect 54 0 21 1;
#X connect 55 0 21 0;
#X connect 56 0 21 2;
#X connect 57 0 21 3;
#X connect 58 0 21 4;
#X connect 59 0 21 5;
#X connect 60 0 21 6;
#X connect 61 0 12 0;
#X connect 62 0 63 0;
#X connect 63 0 64 0;
#X connect 64 0 65 0;
#X connect 66 0 62 1;
#X restore 211 -1 pd recorder;
#X f 20;
#N canvas 860 47 958 464 player 0;
#X obj -30 263 outlet~;
#X obj 33 263 outlet~;
#X obj 95 263 outlet~;
#X obj 158 263 outlet~;
#X obj 223 263 outlet~;
#X obj 286 263 outlet~;
#X obj 351 263 outlet~;
#X msg 80 5 1;
#X msg 128 5 0;
#X obj 135 28 r start;
#X obj 128 60 v play-state;
#X obj -30 141 readsf~ 7, f 64;
#X obj 128 84 s play-state;
#X obj -30 36 r end;
#X msg -30 109 open ./sounds/phrase-1.wav 0 0 7 4;
#X msg -19 84 set open \$1 0 0 7 4;
#X obj 32 227 *~ 1;
#X obj 96 227 *~ 1;
#X obj 159 227 *~ 1;
#X obj 223 227 *~ 1;
#X obj 287 227 *~ 1;
#X obj 352 227 *~ 1;
#X obj -31 227 *~ 1;
#X floatatom -6 201 5 0 0 0 - - -;
#X floatatom 57 201 5 0 0 0 - - -;
#X floatatom 121 201 5 0 0 0 - - -;
#X floatatom 184 201 5 0 0 0 - - -;
#X floatatom 248 201 5 0 0 0 - - -;
#X floatatom 312 201 5 0 0 0 - - -;
#X floatatom 377 201 5 0 0 0 - - -;
#X obj -6 177 r b-7;
#X obj -19 59 r filename;
#X obj 128 -23 r stop;
#X obj 176 -23 r rec;
#X obj 80 -23 r play;
#X obj 217 -23 r dub;
#X obj 176 4 int;
#X obj 57 177 r b-1;
#X obj 121 177 r b-2;
#X obj 184 177 r b-3;
#X obj 248 177 r b-4;
#X obj 312 177 r b-5;
#X obj 377 177 r b-6;
#X connect 7 0 10 0;
#X connect 8 0 10 0;
#X connect 9 0 10 0;
#X connect 10 0 11 0;
#X connect 10 0 12 0;
#X connect 11 0 22 0;
#X connect 11 1 16 0;
#X connect 11 2 17 0;
#X connect 11 3 18 0;
#X connect 11 4 19 0;
#X connect 11 5 20 0;
#X connect 11 6 21 0;
#X connect 13 0 14 0;
#X connect 14 0 11 0;
#X connect 15 0 14 0;
#X connect 16 0 1 0;
#X connect 17 0 2 0;
#X connect 18 0 3 0;
#X connect 19 0 4 0;
#X connect 20 0 5 0;
#X connect 21 0 6 0;
#X connect 22 0 0 0;
#X connect 23 0 22 1;
#X connect 24 0 16 1;
#X connect 25 0 17 1;
#X connect 26 0 18 1;
#X connect 27 0 19 1;
#X connect 28 0 20 1;
#X connect 29 0 21 1;
#X connect 30 0 23 0;
#X connect 31 0 15 0;
#X connect 32 0 8 0;
#X connect 33 0 36 0;
#X connect 34 0 7 0;
#X connect 35 0 36 1;
#X connect 36 0 10 0;
#X connect 37 0 24 0;
#X connect 38 0 25 0;
#X connect 39 0 26 0;
#X connect 40 0 27 0;
#X connect 41 0 28 0;
#X connect 42 0 29 0;
#X restore 211 -35 pd player;
#X f 20;
#X obj 102 7 bng 15 250 50 0 minus empty - 5 7 0 10 -262144 -4034 -1
;
#X obj 162 7 bng 15 250 50 0 plus empty + 5 7 0 10 -262144 -1 -1;
#N canvas 1193 165 691 300 debug 0;
#X obj 93 11 r phrase;
#X obj 93 35 print phrase;
#X obj 186 35 print play;
#X obj 266 11 r rec;
#X obj 266 35 print rec;
#X obj 339 11 r stop;
#X obj 339 35 print stop;
#X obj 8 66 r bs-10;
#X obj 95 66 r bars;
#X obj 95 90 print bars;
#X obj 186 11 r play;
#X obj 176 66 r play-state;
#X obj 276 66 r rec-state;
#X obj 176 113 print playing;
#X obj 276 113 print recording;
#X obj 8 11 r patch;
#X obj 8 35 print patch;
#X obj 8 90 print x:a/b;
#X obj 176 90 change 0;
#X obj 276 90 change 0;
#X connect 0 0 1 0;
#X connect 3 0 4 0;
#X connect 5 0 6 0;
#X connect 7 0 17 0;
#X connect 8 0 9 0;
#X connect 10 0 2 0;
#X connect 11 0 18 0;
#X connect 12 0 19 0;
#X connect 15 0 16 0;
#X connect 18 0 13 0;
#X connect 19 0 14 0;
#X restore 34 49 pd debug;
#N canvas 625 266 800 374 effects 0;
#X obj 10 -386 inlet~;
#X obj 89 -386 inlet~;
#X obj 168 -386 inlet~;
#X obj 247 -386 inlet~;
#X obj 324 -386 inlet~;
#X obj 405 -386 inlet~;
#X obj 487 -386 inlet~;
#X obj 63 -120 _cutoff 7;
#X obj 141 -120 _cutoff 6;
#X obj 219 -120 _cutoff 5;
#X obj 299 -120 _cutoff 4;
#X obj 376 -120 _cutoff 3;
#X obj 457 -120 _cutoff 2;
#X obj 538 -120 _cutoff 1;
#X obj 62 -241 _splitter;
#X obj 63 -169 _xfader, f 9;
#X obj 329 -209 r bs-10;
#X obj 141 -169 _xfader, f 9;
#X obj 141 -241 _splitter;
#X obj 220 -169 _xfader, f 9;
#X obj 219 -241 _splitter;
#X obj 299 -169 _xfader, f 9;
#X obj 298 -241 _splitter;
#X obj 377 -169 _xfader, f 9;
#X obj 377 -241 _splitter;
#X obj 458 -241 _splitter;
#X obj 122 -267 r k54;
#X obj 458 -169 _xfader, f 9;
#X obj 539 -169 _xfader, f 9;
#X obj 540 -241 _splitter;
#X obj 10 -75 outlet~;
#X obj 89 -75 outlet~;
#X obj 167 -75 outlet~;
#X obj 246 -75 outlet~;
#X obj 324 -75 outlet~;
#X obj 405 -75 outlet~;
#X obj 486 -75 outlet~;
#X obj 10 -312 _toggler;
#X obj 88 -312 _toggler;
#X obj 168 -312 _toggler;
#X obj 247 -312 _toggler;
#X obj 323 -312 _toggler;
#X obj 404 -312 _toggler;
#X obj 486 -312 _toggler;
#X obj 300 -357 r red-1;
#X obj 201 -267 r k48;
#X obj 279 -267 r k49;
#X obj 358 -267 r k50;
#X obj 437 -267 r k51;
#X obj 600 -267 r k53;
#X obj 518 -267 r k52;
#X connect 0 0 37 0;
#X connect 1 0 38 0;
#X connect 2 0 39 0;
#X connect 3 0 40 0;
#X connect 4 0 41 0;
#X connect 5 0 42 0;
#X connect 6 0 43 0;
#X connect 7 0 30 0;
#X connect 8 0 31 0;
#X connect 9 0 32 0;
#X connect 10 0 33 0;
#X connect 11 0 34 0;
#X connect 12 0 35 0;
#X connect 13 0 36 0;
#X connect 14 0 15 0;
#X connect 14 1 15 2;
#X connect 15 0 7 0;
#X connect 16 0 15 1;
#X connect 16 0 17 1;
#X connect 16 0 19 1;
#X connect 16 0 21 1;
#X connect 16 0 27 1;
#X connect 16 0 28 1;
#X connect 16 0 23 1;
#X connect 17 0 8 0;
#X connect 18 0 17 0;
#X connect 18 1 17 2;
#X connect 19 0 9 0;
#X connect 20 0 19 0;
#X connect 20 1 19 2;
#X connect 21 0 10 0;
#X connect 22 0 21 0;
#X connect 22 1 21 2;
#X connect 23 0 11 0;
#X connect 24 0 23 0;
#X connect 24 1 23 2;
#X connect 25 0 27 0;
#X connect 25 1 27 2;
#X connect 26 0 14 1;
#X connect 27 0 12 0;
#X connect 28 0 13 0;
#X connect 29 0 28 0;
#X connect 29 1 28 2;
#X connect 37 0 30 0;
#X connect 37 1 14 0;
#X connect 38 0 31 0;
#X connect 38 1 18 0;
#X connect 39 0 32 0;
#X connect 39 1 20 0;
#X connect 40 0 33 0;
#X connect 40 1 22 0;
#X connect 41 0 34 0;
#X connect 41 1 24 0;
#X connect 42 0 35 0;
#X connect 42 1 25 0;
#X connect 43 0 36 0;
#X connect 43 1 29 0;
#X connect 44 0 37 1;
#X connect 44 0 38 1;
#X connect 44 0 39 1;
#X connect 44 0 40 1;
#X connect 44 0 41 1;
#X connect 44 0 42 1;
#X connect 44 0 43 1;
#X connect 45 0 18 1;
#X connect 46 0 20 1;
#X connect 47 0 22 1;
#X connect 48 0 24 1;
#X connect 49 0 29 1;
#X connect 50 0 25 1;
#X restore 210 32 pd effects;
#X f 20;
#N canvas 953 0 958 464 sync 0;
#X obj 63 -46 midirealtimein;
#X obj 63 132 counter 0 23;
#X obj 63 157 sel 0;
#X obj 195 132 counter 1 96;
#X obj 276 105 * 96;
#X obj 195 185 s start;
#X obj 90 78 metro 1 48 persec, f 13;
#X obj 244 209 s end;
#X msg 90 51 stop;
#X obj 194 -46 loadbang;
#X obj 63 18 route 248 250 252;
#X obj 140 51 s stop;
#X obj 75 185 s beat;
#X obj 206 79 b;
#X obj 174 -46 bng 15 250 50 0 empty empty empty 17 7 0 10 -262144
-1 -1;
#X obj 174 -20 t b b;
#X obj 195 157 sel 1;
#X obj 244 157 sel, f 5;
#X msg 63 268 65;
#X msg 139 268 63;
#X obj 63 298 makenote 127 150;
#X obj 63 376 noteout;
#X obj 181 238 r play-state;
#X obj 181 333 t b f;
#X msg 181 383 62;
#X obj 213 383 * 127;
#X obj 181 411 noteout;
#X obj 196 262 r stop;
#X msg 196 287 0;
#X obj 141 215 r rec-state;
#X msg 102 268 62;
#X obj 102 241 spigot;
#X obj 63 216 t b f, f 6;
#X obj 181 359 del 151;
#X obj 206 310 tgl 15 0 empty empty empty 17 7 0 10 -262144 -1 -1 1
1;
#X obj 63 325 spigot;
#X obj 121 333 r track;
#X obj 121 357 + 1;
#X obj 276 80 r bars;
#X connect 0 0 10 0;
#X connect 1 0 2 0;
#X connect 2 0 12 0;
#X connect 2 0 32 0;
#X connect 3 0 16 0;
#X connect 3 0 17 0;
#X connect 4 0 3 4;
#X connect 4 0 17 1;
#X connect 6 0 1 0;
#X connect 6 0 3 0;
#X connect 8 0 6 0;
#X connect 9 0 15 0;
#X connect 10 0 1 0;
#X connect 10 0 3 0;
#X connect 10 0 8 0;
#X connect 10 1 13 0;
#X connect 10 2 11 0;
#X connect 13 0 1 3;
#X connect 13 0 3 3;
#X connect 14 0 15 0;
#X connect 15 0 6 0;
#X connect 15 1 13 0;
#X connect 15 1 34 0;
#X connect 16 0 5 0;
#X connect 16 0 19 0;
#X connect 17 0 7 0;
#X connect 18 0 20 0;
#X connect 19 0 20 0;
#X connect 20 0 35 0;
#X connect 20 1 21 1;
#X connect 22 0 23 0;
#X connect 23 0 33 0;
#X connect 23 1 25 0;
#X connect 24 0 26 0;
#X connect 25 0 26 1;
#X connect 27 0 28 0;
#X connect 28 0 23 0;
#X connect 29 0 31 1;
#X connect 30 0 20 0;
#X connect 31 0 30 0;
#X connect 32 0 18 0;
#X connect 32 1 31 0;
#X connect 33 0 24 0;
#X connect 34 0 35 1;
#X connect 35 0 21 0;
#X connect 36 0 37 0;
#X connect 37 0 21 2;
#X connect 37 0 26 2;
#X connect 38 0 4 0;
#X restore 41 -35 pd sync;
#N canvas -7 0 958 464 bars 0;
#X obj 23 -57 loadbang;
#X obj 3 -57 bng 15 250 50 0 empty empty empty 17 7 0 10 -262144 -1
-1;
#X obj 31 -34 notein;
#X obj 31 18 pack f f f;
#X obj 31 42 route 50;
#X obj 31 67 route 127;
#X obj 74 94 s bars;
#X obj 31 245 noteout;
#X obj 31 120 until;
#X obj 31 94 t b f;
#X obj 92 268 route 1 2 3 4 5 6 7 8, f 26;
#X obj 92 295 _sender g 1;
#X obj 114 322 _sender g 2;
#X obj 136 347 _sender g 3;
#X obj 160 374 _sender g 4;
#X obj 181 295 _sender g 5;
#X obj 203 322 _sender g 6;
#X obj 226 347 _sender g 7;
#X obj 248 374 _sender g 8;
#X obj 105 216 * 127;
#X obj 92 245 pack f f;
#X obj 31 144 counter 1 8;
#X obj 76 120 sel 8;
#X obj 105 192 <=;
#X obj 31 168 t f f f, f 11;
#X msg 31 216 50;
#X msg 3 -8 50 127 2;
#X obj 3 -33 t b;
#X obj 197 130 r red-1;
#X obj 219 154 s clip;
#X obj 156 245 noteout;
#X obj 156 105 r track;
#X obj 156 129 + 1;
#X obj 179 198 f;
#X obj 156 154 t b b f;
#X msg 156 178 58, f 2;
#X obj 179 221 * 127;
#X connect 0 0 27 0;
#X connect 1 0 27 0;
#X connect 2 0 3 0;
#X connect 2 1 3 1;
#X connect 2 2 3 2;
#X connect 3 0 4 0;
#X connect 4 0 5 0;
#X connect 5 0 6 0;
#X connect 5 0 9 0;
#X connect 8 0 21 0;
#X connect 9 0 8 0;
#X connect 9 1 23 1;
#X connect 10 0 11 0;
#X connect 10 1 12 0;
#X connect 10 2 13 0;
#X connect 10 3 14 0;
#X connect 10 4 15 0;
#X connect 10 5 16 0;
#X connect 10 6 17 0;
#X connect 10 7 18 0;
#X connect 19 0 7 1;
#X connect 19 0 20 1;
#X connect 20 0 10 0;
#X connect 21 0 22 0;
#X connect 21 0 24 0;
#X connect 22 0 8 1;
#X connect 23 0 19 0;
#X connect 24 0 25 0;
#X connect 24 1 20 0;
#X connect 24 1 7 2;
#X connect 24 2 23 0;
#X connect 25 0 7 0;
#X connect 26 0 3 0;
#X connect 27 0 26 0;
#X connect 28 0 29 0;
#X connect 28 0 33 1;
#X connect 31 0 32 0;
#X connect 32 0 34 0;
#X connect 33 0 36 0;
#X connect 34 0 35 0;
#X connect 34 1 33 0;
#X connect 34 2 30 2;
#X connect 35 0 30 0;
#X connect 36 0 30 1;
#X restore 41 28 pd bars;
#X connect 9 0 0 0;
#X connect 9 1 0 1;
#X connect 9 2 0 2;
#X connect 9 3 0 3;
#X connect 9 4 0 4;
#X connect 9 5 0 5;
#X connect 9 6 0 6;
#X connect 10 0 9 0;
#X connect 10 1 9 1;
#X connect 10 2 9 2;
#X connect 10 3 9 3;
#X connect 10 4 9 4;
#X connect 10 5 9 5;
#X connect 10 6 9 6;
#X connect 14 0 0 0;
#X connect 14 1 0 1;
#X connect 14 2 0 2;
#X connect 14 3 0 3;
#X connect 14 4 0 4;
#X connect 14 5 0 5;
#X connect 14 6 0 6;
